<svg xmlns="http://www.w3.org/2000/svg" xmlns:xlink="http://www.w3.org/1999/xlink" version="1.1" id="Capa_1" x="0" y="0" width="512" height="512" viewBox="0 0 512 512" enable-background="new 0 0 512 512" xml:space="preserve"><path d="M432 0H48C21.6 0 0 21.6 0 48v416c0 26.4 21.6 48 48 48h384c26.4 0 48-21.6 48-48V48C480 21.6 458.4 0 432 0zM416 448H64V64h352V448zM128 288h224v32H128V288zM128 352h224v32H128V352zM160 144c0 26.5 21.5 48 48 48s48-21.5 48-48 -21.5-48-48-48S160 117.5 160 144zM240 192h-64c-26.4 0-48 14.4-48 32v32h160v-32C288 206.4 266.4 192 240 192z"/></svg>